<?xml version="1.0" encoding="UTF-8" standalone="no"?>
<!-- Created with Inkscape (http://www.inkscape.org/) -->

<svg
   xmlns:dc="http://purl.org/dc/elements/1.1/"
   xmlns:cc="http://creativecommons.org/ns#"
   xmlns:rdf="http://www.w3.org/1999/02/22-rdf-syntax-ns#"
   xmlns:svg="http://www.w3.org/2000/svg"
   xmlns="http://www.w3.org/2000/svg"
   xmlns:sodipodi="http://sodipodi.sourceforge.net/DTD/sodipodi-0.dtd"
   xmlns:inkscape="http://www.inkscape.org/namespaces/inkscape"
   width="164.75676mm"
   height="164.75676mm"
   viewBox="0 0 583.7838 583.7838"
   id="svg2"
   version="1.1"
   inkscape:version="0.91 r13725"
   sodipodi:docname="rats-alley-inverse.svg"
   inkscape:export-filename="/home/israel/Documents/Rats Alley/Logo/logo-purple.png"
   inkscape:export-xdpi="90"
   inkscape:export-ydpi="90">
  <defs
     id="defs4" />
  <sodipodi:namedview
     id="base"
     pagecolor="#ffffff"
     bordercolor="#666666"
     borderopacity="1.0"
     inkscape:pageopacity="0.0"
     inkscape:pageshadow="2"
     inkscape:zoom="0.98994949"
     inkscape:cx="455.63683"
     inkscape:cy="294.78808"
     inkscape:document-units="px"
     inkscape:current-layer="layer1"
     showgrid="false"
     inkscape:window-width="1600"
     inkscape:window-height="876"
     inkscape:window-x="0"
     inkscape:window-y="24"
     inkscape:window-maximized="1"
     fit-margin-top="0"
     fit-margin-left="0"
     fit-margin-right="0"
     fit-margin-bottom="0" />
  <metadata
     id="metadata7">
    <rdf:RDF>
      <cc:Work
         rdf:about="">
        <dc:format>image/svg+xml</dc:format>
        <dc:type
           rdf:resource="http://purl.org/dc/dcmitype/StillImage" />
        <dc:title></dc:title>
      </cc:Work>
    </rdf:RDF>
  </metadata>
  <g
     inkscape:label="Layer 1"
     inkscape:groupmode="layer"
     id="layer1"
     transform="translate(-55.278488,-257.41453)">
    <path
       style="opacity:1;fill:#000000;fill-opacity:1"
       d="m 441.88076,257.42328 c -99.97446,0.87397 -219.48238,41.75834 -251.31446,194.35352 -0.73721,-1.93062 -1.59344,-3.85902 -2.58398,-5.78125 -10.87744,-21.26452 -33.97048,-36.0903 -57.89063,-35.61328 -38.27783,-0.71192 -71.041821,39.8369 -62.443355,77.09765 0.02459,0.0725 0.04954,0.1425 0.07422,0.21485 19.104661,96.31128 130.575435,320.28704 345.515625,249.05664 -8.74485,11.65918 -13.17195,22.31102 -14.28516,31.88671 -1.22413,6.76278 -1.24462,14.51759 0.23047,23.34766 8.29486,36.94636 53.91256,60.61372 88.39649,43.58789 5.51217,-3.86461 10.34604,-7.68721 14.58007,-11.45898 0.005,-10e-4 0.009,-0.003 0.0137,-0.004 73.49411,-63.63824 214.78803,-270.02801 47.45703,-421.11133 8.87493,1.00579 19.56967,-0.23707 32.27148,-4.39648 33.88794,-13.23839 51.59624,-58.75333 32.01367,-90.37305 -12.38823,-16.02542 -24.4468,-24.80714 -35.65431,-28.21866 -28.84757,-9.90555 -91.16649,-22.98315 -136.38086,-22.58789 z m 114.92968,31.42969 c 14.05005,-0.34958 27.75748,6.03202 37.43946,16.18554 21.53773,20.06638 16.00231,58.40146 -7.15821,74.89454 -24.03117,19.15228 -63.23311,6.82217 -75.29882,-20.45118 -15.26913,-30.45789 11.30004,-71.11412 45.01757,-70.6289 z m -172.73242,91.33398 c 82.84271,0 150,67.15729 150,150 0,82.84271 -67.15729,150 -150,150 -82.84271,0 -150,-67.15729 -150,-150 0,-82.84271 67.15729,-150 150,-150 z m -252.39453,44.10938 c 14.62535,0.38843 28.73011,7.83415 37.94922,19.11133 18.76139,20.59713 12.53628,55.85537 -9.24414,71.8164 -23.89845,19.36897 -63.149463,7.35416 -75.541016,-19.78906 -15.400025,-30.23108 10.574369,-70.65227 43.906246,-71.12109 0.97837,-0.0378 1.95467,-0.0435 2.92969,-0.0176 z m 329.06055,302.30468 c 14.37087,-0.36131 28.32817,6.47271 37.96484,16.93555 20.60633,20.06629 15.26425,57.09582 -7.14844,73.59766 -23.90366,19.82097 -63.69303,7.80419 -75.89843,-19.79297 -15.38193,-30.46333 11.27206,-71.35923 45.08203,-70.74024 z"
       id="path4140"
       inkscape:connector-curvature="0" />
  </g>
</svg>
