<?xml version="1.0" encoding="UTF-8" standalone="no"?>
<!-- Created with Inkscape (http://www.inkscape.org/) -->

<svg
   xmlns:dc="http://purl.org/dc/elements/1.1/"
   xmlns:cc="http://creativecommons.org/ns#"
   xmlns:rdf="http://www.w3.org/1999/02/22-rdf-syntax-ns#"
   xmlns:svg="http://www.w3.org/2000/svg"
   xmlns="http://www.w3.org/2000/svg"
   xmlns:sodipodi="http://sodipodi.sourceforge.net/DTD/sodipodi-0.dtd"
   xmlns:inkscape="http://www.inkscape.org/namespaces/inkscape"
   width="181.95348mm"
   height="181.95348mm"
   viewBox="0 0 644.71705 644.71705"
   id="svg2"
   version="1.1"
   inkscape:version="0.91 r13725"
   sodipodi:docname="rats-alley-circle.svg"
   inkscape:export-filename="/home/israel/Documents/Rats Alley/Logo/logo-purple.png"
   inkscape:export-xdpi="90"
   inkscape:export-ydpi="90">
  <defs
     id="defs4" />
  <sodipodi:namedview
     id="base"
     pagecolor="#ffffff"
     bordercolor="#666666"
     borderopacity="1.0"
     inkscape:pageopacity="0.0"
     inkscape:pageshadow="2"
     inkscape:zoom="0.7"
     inkscape:cx="102.87217"
     inkscape:cy="434.88516"
     inkscape:document-units="px"
     inkscape:current-layer="layer1"
     showgrid="false"
     inkscape:window-width="1600"
     inkscape:window-height="876"
     inkscape:window-x="0"
     inkscape:window-y="24"
     inkscape:window-maximized="1"
     fit-margin-top="0"
     fit-margin-left="0"
     fit-margin-right="0"
     fit-margin-bottom="0" />
  <metadata
     id="metadata7">
    <rdf:RDF>
      <cc:Work
         rdf:about="">
        <dc:format>image/svg+xml</dc:format>
        <dc:type
           rdf:resource="http://purl.org/dc/dcmitype/StillImage" />
        <dc:title />
      </cc:Work>
    </rdf:RDF>
  </metadata>
  <g
     inkscape:label="Layer 1"
     inkscape:groupmode="layer"
     id="layer1"
     transform="translate(-50.759344,-207.81252)">
    <path
       style="opacity:1;fill:#000000;fill-opacity:1"
       d="M 325.13086 0.005859375 C 323.44972 -0.004140625 321.76907 -0.000121875 320.08789 0.017578125 C 204.3794 -0.31330188 91.295565 67.894163 37.886719 170.55664 C -8.9202907 257.47697 -12.834568 366.33272 28.892578 455.9668 C 66.478294 538.79971 140.40126 604.55307 227.73242 630.61328 C 313.02566 656.95084 409.2271 646.17531 485.92188 600.19336 C 559.91813 556.79616 615.50632 482.92395 635.42773 399.35547 C 655.84895 316.82688 642.3079 226.29809 597.27539 154.01953 C 553.69221 82.583123 481.45422 29.139026 400.00586 9.4726562 C 375.53789 3.3802865 350.34787 0.15417938 325.13086 0.005859375 z M 322.79297 27.773438 C 343.67548 27.848889 364.43939 30.163206 384.89453 34.65625 C 337.35851 34.09367 288.69644 42.450757 245.56836 63.404297 C 185.10397 91.109837 141.46283 148.17725 122.61719 211.12305 C 105.50838 195.55247 81.35812 188.47206 58.5 191.33203 C 105.22744 93.820823 210.58726 27.667394 318.61523 27.789062 C 320.0084 27.774182 321.4008 27.768406 322.79297 27.773438 z M 495.92773 80.199219 C 508.06653 80.331134 519.77717 84.879222 528.83984 93.039062 C 549.36104 111.51641 551.01811 143.1309 532.54102 163.65234 C 514.06367 184.17354 482.44917 185.83061 461.92773 167.35352 C 441.40654 148.87617 439.74948 117.26166 458.22656 96.740234 C 467.26913 86.697444 479.99181 80.742632 493.49609 80.232422 C 494.30851 80.201728 495.11848 80.190424 495.92773 80.199219 z M 567.53516 159.50195 C 590.77959 194.26373 606.15969 234.08443 612.93945 275.25586 C 628.63379 362.52976 599.53413 455.63248 539.73828 520.98242 C 564.016 480.15911 581.0092 434.32776 584.67383 386.74023 C 591.29027 320.14857 563.68875 253.27136 518.31055 205.19336 C 540.28015 198.18015 558.44027 180.89418 567.42773 159.76172 L 567.53516 159.50195 z M 322.3457 172.375 C 405.18841 172.375 472.3457 239.53229 472.3457 322.375 C 472.3457 405.21771 405.18841 472.375 322.3457 472.375 C 239.50299 472.375 172.3457 405.21771 172.3457 322.375 C 172.3457 239.53229 239.50299 172.375 322.3457 172.375 z M 69.054688 218.60938 C 69.808587 218.6046 70.566284 218.61712 71.326172 218.64648 C 74.172682 218.75627 77.004596 219.10912 79.791016 219.70117 C 106.80168 225.44253 124.04392 251.99321 118.30273 279.00391 C 112.56137 306.01457 86.0107 323.2568 59 317.51562 C 31.989336 311.77427 14.747095 285.22359 20.488281 258.21289 C 25.389958 235.154 45.683814 218.75735 69.054688 218.60938 z M 41.355469 411.72266 C 64.728085 453.41796 96.218684 491.23569 135.96484 518.20898 C 190.19937 556.83012 261.52089 566.1177 325.51758 550.95508 C 320.58029 573.57872 326.53979 598.06199 340.47852 616.43164 C 296.55008 619.35774 251.68776 611.83494 210.7168 595.21289 C 131.01228 564.21636 68.285475 494.68108 41.994141 413.69922 L 41.355469 411.72266 z M 401.54883 518.32422 L 401.55078 518.32422 C 423.47094 518.01437 443.03651 532.01963 449.81055 552.86914 C 458.34401 579.13179 443.97164 607.33961 417.70898 615.87305 C 391.44633 624.4065 363.23852 610.03413 354.70508 583.77148 C 346.17162 557.50883 360.54398 529.30102 386.80664 520.76758 C 391.57057 519.21926 396.54012 518.39561 401.54883 518.32422 z "
       transform="translate(50.759344,207.81252)"
       id="path4147" />
  </g>
</svg>
