<?xml version="1.0" encoding="UTF-8" standalone="no"?>
<!-- Created with Inkscape (http://www.inkscape.org/) -->

<svg
   xmlns:dc="http://purl.org/dc/elements/1.1/"
   xmlns:cc="http://creativecommons.org/ns#"
   xmlns:rdf="http://www.w3.org/1999/02/22-rdf-syntax-ns#"
   xmlns:svg="http://www.w3.org/2000/svg"
   xmlns="http://www.w3.org/2000/svg"
   xmlns:sodipodi="http://sodipodi.sourceforge.net/DTD/sodipodi-0.dtd"
   xmlns:inkscape="http://www.inkscape.org/namespaces/inkscape"
   width="168.69092mm"
   height="168.69092mm"
   viewBox="0 0 597.72373 597.72373"
   id="svg2"
   version="1.1"
   inkscape:version="0.91 r13725"
   sodipodi:docname="rats-alley.svg"
   inkscape:export-filename="/home/israel/Documents/Rats Alley/Logo/logo-purple.png"
   inkscape:export-xdpi="90"
   inkscape:export-ydpi="90">
  <defs
     id="defs4" />
  <sodipodi:namedview
     id="base"
     pagecolor="#ffffff"
     bordercolor="#666666"
     borderopacity="1.0"
     inkscape:pageopacity="0.0"
     inkscape:pageshadow="2"
     inkscape:zoom="0.7"
     inkscape:cx="-163.69538"
     inkscape:cy="408.48737"
     inkscape:document-units="px"
     inkscape:current-layer="layer1"
     showgrid="false"
     inkscape:window-width="1600"
     inkscape:window-height="876"
     inkscape:window-x="0"
     inkscape:window-y="24"
     inkscape:window-maximized="1"
     fit-margin-top="0"
     fit-margin-left="0"
     fit-margin-right="0"
     fit-margin-bottom="0" />
  <metadata
     id="metadata7">
    <rdf:RDF>
      <cc:Work
         rdf:about="">
        <dc:format>image/svg+xml</dc:format>
        <dc:type
           rdf:resource="http://purl.org/dc/dcmitype/StillImage" />
        <dc:title></dc:title>
      </cc:Work>
    </rdf:RDF>
  </metadata>
  <g
     inkscape:label="Layer 1"
     inkscape:groupmode="layer"
     id="layer1"
     transform="translate(-70.184046,-228.408)">
    <g
       id="g4190"
       transform="translate(-3.9676441e-6,-3.5874455)">
      <path
         inkscape:connector-curvature="0"
         id="circle4188"
         d="m 618.2168,367.57422 c -8.98758,21.13166 -27.14727,38.42066 -49.11719,45.43164 45.31619,48.0183 72.92181,114.78054 66.37891,181.29297 -3.62094,47.67793 -20.63873,93.64652 -44.9629,134.50976 58.54827,-63.99329 87.83308,-154.77718 74.0072,-240.61636 -6.33376,-43.11759 -22.04007,-84.76029 -46.1947,-120.88559 l -0.11132,0.26758 z"
         style="opacity:1;fill:#000000;fill-opacity:1" />
      <path
         id="path3336"
         d="m 523.13462,530.18702 a 150,150 0 0 1 -150,150 150,150 0 0 1 -150,-150 150,150 0 0 1 150,-150 150,150 0 0 1 150,150 z"
         style="fill:#000000;fill-opacity:1;stroke:none;stroke-width:0;stroke-miterlimit:4;stroke-dasharray:none;stroke-opacity:1"
         inkscape:connector-curvature="0" />
      <path
         id="circle4159"
         d="m 130.57964,427.51332 a 50,50 0 0 1 38.51179,59.30296 50,50 0 0 1 -59.30296,38.5118 50,50 0 0 1 -38.511803,-59.30297 50,50 0 0 1 59.302973,-38.51179 z"
         style="fill:#000000;fill-opacity:1;stroke:none;stroke-width:0;stroke-miterlimit:4;stroke-dasharray:none;stroke-opacity:1"
         inkscape:connector-curvature="0" />
      <path
         id="circle4161"
         d="m 405.49407,791.5826 a 50,50 0 0 1 32.10198,-63.00367 50,50 0 0 1 63.00367,32.10197 50,50 0 0 1 -32.10197,63.00368 50,50 0 0 1 -63.00368,-32.10198 z"
         style="fill:#000000;fill-opacity:1;stroke:none;stroke-width:0;stroke-miterlimit:4;stroke-dasharray:none;stroke-opacity:1"
         inkscape:connector-curvature="0" />
      <path
         id="circle4138"
         d="m 583.33011,371.46507 a 50,50 0 0 1 -70.61377,3.70071 50,50 0 0 1 -3.70072,-70.61378 50,50 0 0 1 70.61378,-3.7007 50,50 0 0 1 3.70071,70.61377 z"
         style="fill:#000000;fill-opacity:1;stroke:none;stroke-width:0;stroke-miterlimit:4;stroke-dasharray:none;stroke-opacity:1"
         inkscape:connector-curvature="0" />
      <path
         inkscape:connector-curvature="0"
         id="path4335"
         d="m 93.082031,622.4082 c 26.179279,79.69372 87.459169,148.05649 165.572269,179.4375 41.75603,17.42913 87.48573,25.38876 132.61328,22.40039 -13.93486,-18.37339 -19.90228,-42.85689 -14.95899,-65.48242 -64.06398,15.18859 -135.48428,5.86056 -189.73047,-32.875 -39.63227,-26.96987 -71.11147,-64.67118 -94.408198,-106.31445 0.304036,0.94466 0.608073,1.88932 0.912109,2.83398 z"
         style="opacity:1;fill:#000000;fill-opacity:1" />
      <path
         inkscape:connector-curvature="0"
         id="path4337"
         d="m 370.18164,235.59375 c -107.37883,-0.34447 -212.42795,64.61979 -259.77539,161.32031 -3.18888,3.58746 2.15424,1.50826 4.28906,1.73633 21.18667,-1.20039 42.94578,5.93292 58.70703,20.27734 18.93189,-63.24782 62.93977,-120.53631 123.8086,-148.12695 42.96621,-20.62952 91.07175,-28.8974 138.5039,-28.32422 -21.47595,-4.72769 -43.56283,-7.07473 -65.5332,-6.88281 z"
         style="opacity:1;fill:#000000;fill-opacity:1" />
    </g>
  </g>
</svg>
