<?xml version="1.0" encoding="UTF-8" standalone="no"?>
<!-- Created with Inkscape (http://www.inkscape.org/) -->

<svg
   xmlns:dc="http://purl.org/dc/elements/1.1/"
   xmlns:cc="http://creativecommons.org/ns#"
   xmlns:rdf="http://www.w3.org/1999/02/22-rdf-syntax-ns#"
   xmlns:svg="http://www.w3.org/2000/svg"
   xmlns="http://www.w3.org/2000/svg"
   xmlns:sodipodi="http://sodipodi.sourceforge.net/DTD/sodipodi-0.dtd"
   xmlns:inkscape="http://www.inkscape.org/namespaces/inkscape"
   width="81.019112mm"
   height="80.844566mm"
   viewBox="0 0 287.07559 286.45712"
   id="svg2"
   version="1.1"
   inkscape:version="0.91 r13725"
   sodipodi:docname="shiny-o.svg">
  <defs
     id="defs4" />
  <sodipodi:namedview
     id="base"
     pagecolor="#ffffff"
     bordercolor="#666666"
     borderopacity="1.0"
     inkscape:pageopacity="0.0"
     inkscape:pageshadow="2"
     inkscape:zoom="0.49497475"
     inkscape:cx="9.0287684"
     inkscape:cy="254.30699"
     inkscape:document-units="px"
     inkscape:current-layer="layer1"
     showgrid="false"
     inkscape:window-width="1600"
     inkscape:window-height="876"
     inkscape:window-x="0"
     inkscape:window-y="24"
     inkscape:window-maximized="1"
     fit-margin-top="0"
     fit-margin-left="0"
     fit-margin-right="0"
     fit-margin-bottom="0" />
  <metadata
     id="metadata7">
    <rdf:RDF>
      <cc:Work
         rdf:about="">
        <dc:format>image/svg+xml</dc:format>
        <dc:type
           rdf:resource="http://purl.org/dc/dcmitype/StillImage" />
        <dc:title></dc:title>
      </cc:Work>
    </rdf:RDF>
  </metadata>
  <g
     inkscape:label="Layer 1"
     inkscape:groupmode="layer"
     id="layer1"
     transform="translate(-223.31286,-377.73728)">
    <path
       style="color:#000000;font-style:normal;font-variant:normal;font-weight:normal;font-stretch:normal;font-size:medium;line-height:normal;font-family:sans-serif;text-indent:0;text-align:start;text-decoration:none;text-decoration-line:none;text-decoration-style:solid;text-decoration-color:#000000;letter-spacing:normal;word-spacing:normal;text-transform:none;direction:ltr;block-progression:tb;writing-mode:lr-tb;baseline-shift:baseline;text-anchor:start;white-space:normal;clip-rule:nonzero;display:inline;overflow:visible;visibility:visible;opacity:1;isolation:auto;mix-blend-mode:normal;color-interpolation:sRGB;color-interpolation-filters:linearRGB;solid-color:#000000;solid-opacity:1;fill:#000000;fill-opacity:1;fill-rule:nonzero;stroke:none;stroke-width:10;stroke-linecap:butt;stroke-linejoin:miter;stroke-miterlimit:4;stroke-dasharray:none;stroke-dashoffset:0;stroke-opacity:1;color-rendering:auto;image-rendering:auto;shape-rendering:auto;text-rendering:auto;enable-background:accumulate"
       d="m 385.10156,416.81641 c -50.13295,-0.10552 -97.94556,33.99245 -114.65429,81.19336 -16.04679,43.22476 -5.47062,95.04271 26.92557,128.02344 31.2032,32.98717 81.24524,46.44582 124.69552,32.99999 44.07688,-12.9979 79.27161,-52.13453 86.55859,-97.64843 7.57558,-43.22661 -9.6728,-89.88096 -44.24947,-117.1141 -22.19032,-17.93407 -50.70915,-28.00098 -79.27592,-27.45426 z m 3.42383,17.98047 c 43.28838,0.0592 85.09894,30.36982 98.38027,71.95598 13.38918,38.8013 1.54786,84.89601 -29.39423,112.23538 -31.58706,28.80479 -80.47361,35.61279 -118.4919,15.87114 -35.88767,-17.93134 -59.80843,-57.38275 -58.00586,-97.61133 1.05555,-38.57473 24.32397,-75.23243 59.45536,-91.83686 14.89519,-7.249 31.49275,-10.91461 48.05636,-10.61431 z"
       id="path4136"
       inkscape:connector-curvature="0" />
    <path
       style="color:#000000;font-style:normal;font-variant:normal;font-weight:normal;font-stretch:normal;font-size:medium;line-height:normal;font-family:sans-serif;text-indent:0;text-align:start;text-decoration:none;text-decoration-line:none;text-decoration-style:solid;text-decoration-color:#000000;letter-spacing:normal;word-spacing:normal;text-transform:none;direction:ltr;block-progression:tb;writing-mode:lr-tb;baseline-shift:baseline;text-anchor:start;white-space:normal;clip-rule:nonzero;display:inline;overflow:visible;visibility:visible;opacity:1;isolation:auto;mix-blend-mode:normal;color-interpolation:sRGB;color-interpolation-filters:linearRGB;solid-color:#000000;solid-opacity:1;fill:#000000;fill-opacity:1;fill-rule:nonzero;stroke:none;stroke-width:9.09244251;stroke-linecap:butt;stroke-linejoin:miter;stroke-miterlimit:4;stroke-dasharray:none;stroke-dashoffset:0;stroke-opacity:1;color-rendering:auto;image-rendering:auto;shape-rendering:auto;text-rendering:auto;enable-background:accumulate"
       d="m 440.04492,475.57617 c -6.51753,0.30671 -6.57075,9.20075 -2.49414,12.62305 26.1546,27.75859 24.53305,76.22648 -3.9082,101.81055 -24.19499,23.16079 -64.4581,27.10125 -91.70826,7.06353 -5.15609,-2.3376 -8.81922,-9.41383 -14.96557,-8.66119 -5.2212,1.18848 -6.65066,8.67503 -2.38477,11.86914 19.17582,22.43075 51.16812,32.15257 79.87795,26.52954 33.85217,-5.69343 61.79313,-33.9883 68.39009,-67.47025 6.52115,-29.66997 -4.23129,-63.0527 -27.94968,-82.30343 -1.54186,-0.6889 -3.12465,-1.48903 -4.85742,-1.46094 z"
       id="circle4138"
       inkscape:connector-curvature="0" />
    <path
       style="color:#000000;font-style:normal;font-variant:normal;font-weight:normal;font-stretch:normal;font-size:medium;line-height:normal;font-family:sans-serif;text-indent:0;text-align:start;text-decoration:none;text-decoration-line:none;text-decoration-style:solid;text-decoration-color:#000000;letter-spacing:normal;word-spacing:normal;text-transform:none;direction:ltr;block-progression:tb;writing-mode:lr-tb;baseline-shift:baseline;text-anchor:start;white-space:normal;clip-rule:nonzero;display:inline;overflow:visible;visibility:visible;opacity:1;isolation:auto;mix-blend-mode:normal;color-interpolation:sRGB;color-interpolation-filters:linearRGB;solid-color:#000000;solid-opacity:1;fill:#000000;fill-opacity:1;fill-rule:nonzero;stroke:none;stroke-width:9.09244251;stroke-linecap:butt;stroke-linejoin:miter;stroke-miterlimit:4;stroke-dasharray:none;stroke-dashoffset:0;stroke-opacity:1;color-rendering:auto;image-rendering:auto;shape-rendering:auto;text-rendering:auto;enable-background:accumulate"
       d="m 375.18945,377.75 c -69.2799,-0.17812 -134.44277,53.00515 -148.28951,120.88323 -11.55048,52.0707 5.10755,110.74957 45.43795,146.33161 2.6034,2.7 8.51403,6.26653 10.93359,1.67578 0.84673,-6.00808 -5.34389,-10.03822 -8.10546,-14.625 -35.91087,-42.34344 -41.42179,-105.99203 -17.12407,-155.26208 22.4449,-46.67736 72.98804,-77.62932 124.40532,-79.25745 33.92084,-1.87905 67.60184,10.47451 94.21606,31.33276 4.77346,2.71624 8.81689,8.24855 13.98315,9.18873 5.23685,-1.06307 3.53304,-7.71592 0.58008,-10.32617 -10.06722,-13.11566 -24.4143,-22.16504 -38.32812,-30.65821 -23.6789,-12.94693 -50.72913,-19.6282 -77.70899,-19.2832 z"
       id="path4151"
       inkscape:connector-curvature="0" />
  </g>
</svg>
