<?xml version="1.0" encoding="UTF-8" standalone="no"?>
<!-- Created with Inkscape (http://www.inkscape.org/) -->

<svg
   xmlns:dc="http://purl.org/dc/elements/1.1/"
   xmlns:cc="http://creativecommons.org/ns#"
   xmlns:rdf="http://www.w3.org/1999/02/22-rdf-syntax-ns#"
   xmlns:svg="http://www.w3.org/2000/svg"
   xmlns="http://www.w3.org/2000/svg"
   xmlns:sodipodi="http://sodipodi.sourceforge.net/DTD/sodipodi-0.dtd"
   xmlns:inkscape="http://www.inkscape.org/namespaces/inkscape"
   width="379.8125"
   height="555.375"
   id="svg2"
   version="1.1"
   inkscape:version="0.48.4 r9939"
   sodipodi:docname="ShinySign.svg">
  <defs
     id="defs4" />
  <sodipodi:namedview
     id="base"
     pagecolor="#ffffff"
     bordercolor="#666666"
     borderopacity="1.0"
     inkscape:pageopacity="0.0"
     inkscape:pageshadow="2"
     inkscape:zoom="0.5"
     inkscape:cx="-268.57436"
     inkscape:cy="400.97952"
     inkscape:document-units="px"
     inkscape:current-layer="layer1"
     showgrid="false"
     inkscape:window-width="1600"
     inkscape:window-height="876"
     inkscape:window-x="0"
     inkscape:window-y="24"
     inkscape:window-maximized="1"
     fit-margin-top="0"
     fit-margin-left="0"
     fit-margin-right="0"
     fit-margin-bottom="0" />
  <metadata
     id="metadata7">
    <rdf:RDF>
      <cc:Work
         rdf:about="">
        <dc:format>image/svg+xml</dc:format>
        <dc:type
           rdf:resource="http://purl.org/dc/dcmitype/StillImage" />
        <dc:title />
      </cc:Work>
    </rdf:RDF>
  </metadata>
  <g
     inkscape:label="Layer 1"
     inkscape:groupmode="layer"
     id="layer1"
     transform="translate(-182.14099,-248.49359)">
    <g
       id="g3033"
       style="font-size:486.17141724px;font-style:normal;font-variant:normal;font-weight:normal;font-stretch:normal;line-height:125%;letter-spacing:0px;word-spacing:0px;fill:#000000;fill-opacity:1;stroke:none;font-family:SL Panzerkardinal;-inkscape-font-specification:SL Panzerkardinal"
       transform="translate(0,480)" />
    <g
       id="g3042"
       style="font-size:486.17141724px;font-style:normal;font-variant:normal;font-weight:normal;font-stretch:normal;line-height:125%;letter-spacing:0px;word-spacing:0px;fill:#ff0000;fill-opacity:1;stroke:none;font-family:SL Panzerkardinal;-inkscape-font-specification:SL Panzerkardinal"
       transform="translate(715.99999,-77.999997)" />
    <g
       inkscape:export-ydpi="90"
       inkscape:export-xdpi="90"
       inkscape:export-filename="/home/israel/Documents/Rats Alley/ShinySign3.png"
       id="g3051"
       style="font-size:486.17141724px;font-style:normal;font-variant:normal;font-weight:normal;font-stretch:normal;line-height:125%;letter-spacing:0px;word-spacing:0px;fill:#000000;fill-opacity:1;stroke:none;font-family:SL Panzerkardinal;-inkscape-font-specification:SL Panzerkardinal"
       transform="translate(-1300,-60)" />
    <g
       transform="translate(3.0472412,148.24359)"
       style="font-size:486.17141724px;font-style:normal;font-variant:normal;font-weight:normal;font-stretch:normal;line-height:125%;letter-spacing:0px;word-spacing:0px;fill:#008080;fill-opacity:1;stroke:none;font-family:SL Panzerkardinal;-inkscape-font-specification:SL Panzerkardinal"
       id="g3055"
       inkscape:export-filename="/home/israel/Documents/Rats Alley/ShinySign4.png"
       inkscape:export-xdpi="90"
       inkscape:export-ydpi="90">
      <path
         id="path3057"
         style="fill:#000000"
         d="m 223.15625,271.21875 164.78125,0 70.96875,-70.96875 -247.4375,0 z M 190.5,100.25 l 50,100 -61.40625,0 0.46875,355.375 71,0 0,-284.40625 48.9375,0 -16.15625,-32.4375 L 248.75,169.3125 214.34375,100.25 190.5,100.25 z m 47.5,0 34.40625,69.0625 34.59375,69.46875 16.15625,32.4375 164.78125,0 0,47.5 c -3.3e-4,31.65199 -15.81728,47.46894 -47.46875,47.46875 l -166.40625,0 0,71.4375 143.125,0 0,22.5 28.15625,56.53125 34.59375,69.5 34.59375,69.46875 23.65625,0 -50,-100 0,-118.46875 c 47.16078,-7.5963 70.71834,-45.56948 70.71875,-113.9375 l 0,-122.96875 -247.4375,0 -50,-100 -23.46875,0 z m 179.1875,407.375 0,48 50,100 23.65625,0 -34.5625,-69.46875 -34.59375,-69.5 -4.5,-9.03125 z"
         inkscape:connector-curvature="0" />
    </g>
  </g>
</svg>
