<?xml version="1.0" encoding="UTF-8" standalone="no"?>
<!-- Created with Inkscape (http://www.inkscape.org/) -->

<svg
   xmlns:dc="http://purl.org/dc/elements/1.1/"
   xmlns:cc="http://creativecommons.org/ns#"
   xmlns:rdf="http://www.w3.org/1999/02/22-rdf-syntax-ns#"
   xmlns:svg="http://www.w3.org/2000/svg"
   xmlns="http://www.w3.org/2000/svg"
   xmlns:sodipodi="http://sodipodi.sourceforge.net/DTD/sodipodi-0.dtd"
   xmlns:inkscape="http://www.inkscape.org/namespaces/inkscape"
   width="791.62531"
   height="791.62531"
   id="svg2"
   version="1.1"
   inkscape:version="0.48.4 r9939"
   sodipodi:docname="shiny-circle-o.svg">
  <defs
     id="defs4" />
  <sodipodi:namedview
     id="base"
     pagecolor="#ffffff"
     bordercolor="#666666"
     borderopacity="1.0"
     inkscape:pageopacity="0.0"
     inkscape:pageshadow="2"
     inkscape:zoom="0.7071068"
     inkscape:cx="662.93563"
     inkscape:cy="335.1173"
     inkscape:document-units="px"
     inkscape:current-layer="layer1"
     showgrid="false"
     inkscape:window-width="1600"
     inkscape:window-height="876"
     inkscape:window-x="0"
     inkscape:window-y="24"
     inkscape:window-maximized="1"
     fit-margin-top="0"
     fit-margin-left="0"
     fit-margin-right="0"
     fit-margin-bottom="0" />
  <metadata
     id="metadata7">
    <rdf:RDF>
      <cc:Work
         rdf:about="">
        <dc:format>image/svg+xml</dc:format>
        <dc:type
           rdf:resource="http://purl.org/dc/dcmitype/StillImage" />
        <dc:title />
      </cc:Work>
    </rdf:RDF>
  </metadata>
  <g
     inkscape:label="Layer 1"
     inkscape:groupmode="layer"
     id="layer1"
     transform="translate(23.765421,-130.36842)">
    <path
       style="font-size:medium;font-style:normal;font-variant:normal;font-weight:normal;font-stretch:normal;text-indent:0;text-align:start;text-decoration:none;line-height:normal;letter-spacing:normal;word-spacing:normal;text-transform:none;direction:ltr;block-progression:tb;writing-mode:lr-tb;text-anchor:start;baseline-shift:baseline;color:#000000;fill:#000000;fill-opacity:1;stroke:none;stroke-width:53.1265564;marker:none;visibility:visible;display:inline;overflow:visible;enable-background:accumulate;font-family:Sans;-inkscape-font-specification:Sans"
       d="m 372.04725,130.36915 c -218.30519,0 -395.811939,177.50676 -395.811939,395.81194 0,218.30518 177.506749,395.81193 395.811939,395.81193 218.30518,0 395.81193,-177.50675 395.81193,-395.81193 0,-218.30518 -177.50675,-395.81194 -395.81193,-395.81194 z m 0,49.99854 c 191.28317,0 345.81339,154.53022 345.81339,345.8134 0,191.28317 -154.53022,345.8134 -345.81339,345.8134 -191.28318,0 -345.813404,-154.53023 -345.813404,-345.8134 0,-191.28318 154.530224,-345.8134 345.813404,-345.8134 z"
       id="path3025"
       inkscape:connector-curvature="0" />
    <g
       id="g3033"
       style="font-size:486.17141724px;font-style:normal;font-variant:normal;font-weight:normal;font-stretch:normal;line-height:125%;letter-spacing:0px;word-spacing:0px;fill:#000000;fill-opacity:1;stroke:none;font-family:SL Panzerkardinal;-inkscape-font-specification:SL Panzerkardinal"
       transform="translate(0,480)" />
    <g
       id="g3042"
       style="font-size:486.17141724px;font-style:normal;font-variant:normal;font-weight:normal;font-stretch:normal;line-height:125%;letter-spacing:0px;word-spacing:0px;fill:#ff0000;fill-opacity:1;stroke:none;font-family:SL Panzerkardinal;-inkscape-font-specification:SL Panzerkardinal"
       transform="translate(715.99999,-77.999997)" />
    <g
       inkscape:export-ydpi="90"
       inkscape:export-xdpi="90"
       inkscape:export-filename="/home/israel/Documents/Rats Alley/ShinySign3.png"
       id="g3051"
       style="font-size:486.17141724px;font-style:normal;font-variant:normal;font-weight:normal;font-stretch:normal;line-height:125%;letter-spacing:0px;word-spacing:0px;fill:#000000;fill-opacity:1;stroke:none;font-family:SL Panzerkardinal;-inkscape-font-specification:SL Panzerkardinal"
       transform="translate(-1300,-60)" />
    <g
       transform="translate(3.0472412,148.24359)"
       style="font-size:486.17141724px;font-style:normal;font-variant:normal;font-weight:normal;font-stretch:normal;line-height:125%;letter-spacing:0px;word-spacing:0px;fill:#008080;fill-opacity:1;stroke:none;font-family:SL Panzerkardinal;-inkscape-font-specification:SL Panzerkardinal"
       id="g3055"
       inkscape:export-filename="/home/israel/Documents/Rats Alley/ShinySign4.png"
       inkscape:export-xdpi="90"
       inkscape:export-ydpi="90">
      <path
         id="path3057"
         style="fill:#000000"
         d="m 487.9375,271.21875 0,47.5 c -3.3e-4,31.65199 -15.81728,47.46894 -47.46875,47.46875 l -166.40625,0 0,71.4375 143.125,0 0,22.5 c 35.17948,70.63498 62.55066,125.63095 97.34375,195.5 l 23.65625,0 -50,-100 0,-118.46875 c 47.16078,-7.5963 70.71834,-45.56948 70.71875,-113.9375 l 0,-122.96875 -247.43791,0 -50,-100 -23.468,0 50,100.00014 -24.032,0 -49.62459,-100.00014 -23.84375,0 50.00034,100.00014 -61.40659,-1.4e-4 0.46875,355.375 71,0 0,-284.40625 z m -70.75,236.40625 0,48 50,100 23.65625,0 c -24.39137,-49.0128 -51.57846,-103.68777 -73.65625,-148 z"
         inkscape:connector-curvature="0"
         sodipodi:nodetypes="ccsccccccccsccccccccccccccccccc" />
    </g>
  </g>
</svg>
